<?xml version="1.0" encoding="UTF-8" standalone="no"?>
<svg
   width="26"
   height="26"
   viewBox="0 0 26 26"
   version="1.1"
   id="svg1856"
   sodipodi:docname="maximize-toggled-pressed.svg"
   inkscape:version="1.2 (dc2aedaf03, 2022-05-15)"
   xmlns:inkscape="http://www.inkscape.org/namespaces/inkscape"
   xmlns:sodipodi="http://sodipodi.sourceforge.net/DTD/sodipodi-0.dtd"
   xmlns="http://www.w3.org/2000/svg"
   xmlns:svg="http://www.w3.org/2000/svg">
  <defs
     id="defs1860" />
  <sodipodi:namedview
     id="namedview1858"
     pagecolor="#505050"
     bordercolor="#ffffff"
     borderopacity="1"
     inkscape:showpageshadow="0"
     inkscape:pageopacity="0"
     inkscape:pagecheckerboard="1"
     inkscape:deskcolor="#505050"
     showgrid="false"
     inkscape:zoom="10.429825"
     inkscape:cx="-3.9310343"
     inkscape:cy="5.417157"
     inkscape:window-width="1413"
     inkscape:window-height="874"
     inkscape:window-x="27"
     inkscape:window-y="0"
     inkscape:window-maximized="1"
     inkscape:current-layer="svg1856" />
  <rect
     width="26"
     height="26"
     fill="#09090a"
     id="rect1846"
     style="fill:#7a8f64;fill-opacity:1;stroke-width:0.8125"
     x="0"
     y="0" />
  <path
     id="rect496"
     style="fill:none;fill-opacity:0.989713;fill-rule:evenodd;stroke:#ffffff;stroke-width:2.21631;stroke-linecap:round;stroke-linejoin:round;stroke-dasharray:none;stroke-dashoffset:90.7465;stroke-opacity:1;paint-order:stroke fill markers"
     d="m 6.1931035,6.1061718 h 6.2016045 c 0.567473,0 1.024316,0.4568451 1.024316,1.0243152 v 6.201605 c 0,0.567473 -0.456843,1.024319 -1.024316,1.024319 H 6.1931035 c -0.5674705,0 -1.0243151,-0.456846 -1.0243151,-1.024319 V 7.130487 c 0,-0.5674701 0.4568446,-1.0243154 1.0243151,-1.0243152 z" />
  <path
     id="path288"
     style="fill:none;fill-opacity:0.989713;fill-rule:evenodd;stroke:#ffffff;stroke-width:2.21631;stroke-linecap:round;stroke-linejoin:round;stroke-dasharray:none;stroke-dashoffset:90.7465;stroke-opacity:1;paint-order:stroke fill markers"
     d="m 13.461319,12.188878 h 6.201604 c 0.567473,0 1.024316,0.456845 1.024316,1.024315 v 6.201605 c 0,0.567473 -0.456843,1.024319 -1.024316,1.024319 h -6.201604 c -0.56747,0 -1.024315,-0.456846 -1.024315,-1.024319 v -6.201605 c 0,-0.56747 0.456845,-1.024315 1.024315,-1.024315 z" />
  <path
     style="fill:#7a8f64;fill-rule:evenodd;stroke:#ffffff;stroke-width:2.37597;stroke-linecap:round;stroke-linejoin:round;stroke-dashoffset:90.7465;paint-order:stroke fill markers"
     d="m 6.148186,7.3239722 6.541112,0.091782"
     id="path543"
     sodipodi:nodetypes="cc" />
  <path
     style="fill:#7a8f64;fill-rule:evenodd;stroke:#ffffff;stroke-width:2.37597;stroke-linecap:round;stroke-linejoin:round;stroke-dashoffset:90.7465;paint-order:stroke fill markers"
     d="m 13.672102,13.878116 6.541112,0.09178"
     id="path545"
     sodipodi:nodetypes="cc" />
</svg>
